<svg width="240" height="240" viewBox="0 0 240 240" fill="none" xmlns="http://www.w3.org/2000/svg">
<rect width="240" height="240" fill="#0078D4"/>
<path d="M50.802 72.5C53.652 72.5 56.127 72.98 58.227 73.94C60.327 74.87 61.947 76.22 63.087 77.99C64.227 79.73 64.797 81.785 64.797 84.155C64.797 86.525 64.227 88.58 63.087 90.32C61.947 92.06 60.327 93.41 58.227 94.37C56.127 95.3 53.652 95.765 50.802 95.765H45.312V104H36.402V72.5H50.802ZM50.262 88.745C52.092 88.745 53.472 88.355 54.402 87.575C55.332 86.765 55.797 85.625 55.797 84.155C55.797 82.685 55.332 81.545 54.402 80.735C53.472 79.925 52.092 79.52 50.262 79.52H45.312V88.745H50.262ZM77.1009 82.535C77.9709 81.425 79.0959 80.6 80.4759 80.06C81.8859 79.49 83.4909 79.205 85.2909 79.205V86.9C84.5109 86.81 83.8659 86.765 83.3559 86.765C81.5259 86.765 80.0859 87.26 79.0359 88.25C78.0159 89.24 77.5059 90.755 77.5059 92.795V104H68.9559V79.61H77.1009V82.535ZM100.839 104.405C98.2295 104.405 95.8745 103.865 93.7745 102.785C91.6745 101.705 90.0245 100.205 88.8245 98.285C87.6545 96.365 87.0695 94.19 87.0695 91.76C87.0695 89.36 87.6545 87.2 88.8245 85.28C90.0245 83.36 91.6595 81.875 93.7295 80.825C95.8295 79.745 98.1995 79.205 100.839 79.205C103.479 79.205 105.849 79.745 107.949 80.825C110.049 81.875 111.684 83.36 112.854 85.28C114.024 87.17 114.609 89.33 114.609 91.76C114.609 94.19 114.024 96.365 112.854 98.285C111.684 100.205 110.049 101.705 107.949 102.785C105.849 103.865 103.479 104.405 100.839 104.405ZM100.839 97.61C102.339 97.61 103.569 97.1 104.529 96.08C105.489 95.03 105.969 93.59 105.969 91.76C105.969 89.96 105.489 88.55 104.529 87.53C103.569 86.51 102.339 86 100.839 86C99.3395 86 98.1095 86.51 97.1495 87.53C96.1895 88.55 95.7095 89.96 95.7095 91.76C95.7095 93.59 96.1895 95.03 97.1495 96.08C98.1095 97.1 99.3395 97.61 100.839 97.61ZM117.535 113.135C115.045 113.135 113.065 112.715 111.595 111.875L113.755 105.8C114.535 106.28 115.42 106.52 116.41 106.52C117.19 106.52 117.805 106.25 118.255 105.71C118.705 105.17 118.93 104.375 118.93 103.325V79.61H127.48V103.37C127.48 106.37 126.595 108.74 124.825 110.48C123.085 112.25 120.655 113.135 117.535 113.135ZM123.205 76.91C121.645 76.91 120.385 76.475 119.425 75.605C118.465 74.735 117.985 73.655 117.985 72.365C117.985 71.075 118.465 69.995 119.425 69.125C120.385 68.255 121.645 67.82 123.205 67.82C124.765 67.82 126.025 68.24 126.985 69.08C127.945 69.89 128.425 70.94 128.425 72.23C128.425 73.58 127.945 74.705 126.985 75.605C126.025 76.475 124.765 76.91 123.205 76.91ZM157.914 91.85C157.914 91.91 157.869 92.615 157.779 93.965H140.049C140.409 95.225 141.099 96.2 142.119 96.89C143.169 97.55 144.474 97.88 146.034 97.88C147.204 97.88 148.209 97.715 149.049 97.385C149.919 97.055 150.789 96.515 151.659 95.765L156.159 100.445C153.789 103.085 150.324 104.405 145.764 104.405C142.914 104.405 140.409 103.865 138.249 102.785C136.089 101.705 134.409 100.205 133.209 98.285C132.039 96.365 131.454 94.19 131.454 91.76C131.454 89.36 132.024 87.215 133.164 85.325C134.334 83.405 135.939 81.905 137.979 80.825C140.019 79.745 142.314 79.205 144.864 79.205C147.294 79.205 149.499 79.715 151.479 80.735C153.459 81.725 155.019 83.18 156.159 85.1C157.329 86.99 157.914 89.24 157.914 91.85ZM144.909 85.28C143.589 85.28 142.479 85.655 141.579 86.405C140.709 87.155 140.154 88.175 139.914 89.465H149.904C149.664 88.175 149.094 87.155 148.194 86.405C147.324 85.655 146.229 85.28 144.909 85.28ZM174.321 104.405C171.621 104.405 169.206 103.865 167.076 102.785C164.946 101.705 163.281 100.205 162.081 98.285C160.911 96.365 160.326 94.19 160.326 91.76C160.326 89.33 160.911 87.17 162.081 85.28C163.281 83.36 164.946 81.875 167.076 80.825C169.206 79.745 171.621 79.205 174.321 79.205C177.081 79.205 179.466 79.805 181.476 81.005C183.486 82.175 184.911 83.81 185.751 85.91L179.136 89.285C178.026 87.095 176.406 86 174.276 86C172.746 86 171.471 86.51 170.451 87.53C169.461 88.55 168.966 89.96 168.966 91.76C168.966 93.59 169.461 95.03 170.451 96.08C171.471 97.1 172.746 97.61 174.276 97.61C176.406 97.61 178.026 96.515 179.136 94.325L185.751 97.7C184.911 99.8 183.486 101.45 181.476 102.65C179.466 103.82 177.081 104.405 174.321 104.405ZM206.196 103.01C205.476 103.46 204.591 103.805 203.541 104.045C202.521 104.285 201.426 104.405 200.256 104.405C197.076 104.405 194.631 103.625 192.921 102.065C191.211 100.505 190.356 98.18 190.356 95.09V86.9H186.801V80.51H190.356V74.165H198.906V80.51H204.486V86.9H198.906V95C198.906 95.87 199.131 96.56 199.581 97.07C200.061 97.55 200.691 97.79 201.471 97.79C202.461 97.79 203.331 97.535 204.081 97.025L206.196 103.01Z" fill="white"/>
<path d="M36.8785 159.38H32.0185V167.75H23.1085V136.25H37.5085C40.3585 136.25 42.8335 136.73 44.9335 137.69C47.0335 138.62 48.6535 139.97 49.7935 141.74C50.9335 143.48 51.5035 145.535 51.5035 147.905C51.5035 150.185 50.9635 152.18 49.8835 153.89C48.8335 155.57 47.3185 156.89 45.3385 157.85L52.1335 167.75H42.5935L36.8785 159.38ZM42.5035 147.905C42.5035 146.435 42.0385 145.295 41.1085 144.485C40.1785 143.675 38.7985 143.27 36.9685 143.27H32.0185V152.495H36.9685C38.7985 152.495 40.1785 152.105 41.1085 151.325C42.0385 150.515 42.5035 149.375 42.5035 147.905ZM80.944 155.6C80.944 155.66 80.899 156.365 80.809 157.715H63.079C63.439 158.975 64.129 159.95 65.149 160.64C66.199 161.3 67.504 161.63 69.064 161.63C70.234 161.63 71.239 161.465 72.079 161.135C72.949 160.805 73.819 160.265 74.689 159.515L79.189 164.195C76.819 166.835 73.354 168.155 68.794 168.155C65.944 168.155 63.439 167.615 61.279 166.535C59.119 165.455 57.439 163.955 56.239 162.035C55.069 160.115 54.484 157.94 54.484 155.51C54.484 153.11 55.054 150.965 56.194 149.075C57.364 147.155 58.969 145.655 61.009 144.575C63.049 143.495 65.344 142.955 67.894 142.955C70.324 142.955 72.529 143.465 74.509 144.485C76.489 145.475 78.049 146.93 79.189 148.85C80.359 150.74 80.944 152.99 80.944 155.6ZM67.939 149.03C66.619 149.03 65.509 149.405 64.609 150.155C63.739 150.905 63.184 151.925 62.944 153.215H72.934C72.694 151.925 72.124 150.905 71.224 150.155C70.354 149.405 69.259 149.03 67.939 149.03ZM110.536 143.36V167.75H102.391V165.14C101.491 166.13 100.411 166.88 99.1511 167.39C97.8911 167.9 96.5561 168.155 95.1461 168.155C91.9961 168.155 89.4761 167.225 87.5861 165.365C85.7261 163.505 84.7961 160.715 84.7961 156.995V143.36H93.3461V155.6C93.3461 157.43 93.6911 158.765 94.3811 159.605C95.0711 160.445 96.0761 160.865 97.3961 160.865C98.7461 160.865 99.8411 160.4 100.681 159.47C101.551 158.51 101.986 157.055 101.986 155.105V143.36H110.536ZM131.928 142.955C134.958 142.955 137.388 143.855 139.218 145.655C141.078 147.455 142.008 150.17 142.008 153.8V167.75H133.458V155.195C133.458 151.865 132.123 150.2 129.453 150.2C127.983 150.2 126.798 150.68 125.898 151.64C125.028 152.6 124.593 154.04 124.593 155.96V167.75H116.043V143.36H124.188V146.015C125.148 145.025 126.288 144.275 127.608 143.765C128.928 143.225 130.368 142.955 131.928 142.955ZM147.376 143.36H155.926V167.75H147.376V143.36ZM151.651 140.66C150.091 140.66 148.831 140.225 147.871 139.355C146.911 138.485 146.431 137.405 146.431 136.115C146.431 134.825 146.911 133.745 147.871 132.875C148.831 132.005 150.091 131.57 151.651 131.57C153.211 131.57 154.471 131.99 155.431 132.83C156.391 133.64 156.871 134.69 156.871 135.98C156.871 137.33 156.391 138.455 155.431 139.355C154.471 140.225 153.211 140.66 151.651 140.66ZM173.723 168.155C171.113 168.155 168.758 167.615 166.658 166.535C164.558 165.455 162.908 163.955 161.708 162.035C160.538 160.115 159.953 157.94 159.953 155.51C159.953 153.11 160.538 150.95 161.708 149.03C162.908 147.11 164.543 145.625 166.613 144.575C168.713 143.495 171.083 142.955 173.723 142.955C176.363 142.955 178.733 143.495 180.833 144.575C182.933 145.625 184.568 147.11 185.738 149.03C186.908 150.92 187.493 153.08 187.493 155.51C187.493 157.94 186.908 160.115 185.738 162.035C184.568 163.955 182.933 165.455 180.833 166.535C178.733 167.615 176.363 168.155 173.723 168.155ZM173.723 161.36C175.223 161.36 176.453 160.85 177.413 159.83C178.373 158.78 178.853 157.34 178.853 155.51C178.853 153.71 178.373 152.3 177.413 151.28C176.453 150.26 175.223 149.75 173.723 149.75C172.223 149.75 170.993 150.26 170.033 151.28C169.073 152.3 168.593 153.71 168.593 155.51C168.593 157.34 169.073 158.78 170.033 159.83C170.993 160.85 172.223 161.36 173.723 161.36ZM207.338 142.955C210.368 142.955 212.798 143.855 214.628 145.655C216.488 147.455 217.418 150.17 217.418 153.8V167.75H208.868V155.195C208.868 151.865 207.533 150.2 204.863 150.2C203.393 150.2 202.208 150.68 201.308 151.64C200.438 152.6 200.003 154.04 200.003 155.96V167.75H191.453V143.36H199.598V146.015C200.558 145.025 201.698 144.275 203.018 143.765C204.338 143.225 205.778 142.955 207.338 142.955Z" fill="white"/>
</svg>
