<svg width="64" height="64" viewBox="0 0 64 64" fill="none" xmlns="http://www.w3.org/2000/svg">
<rect width="64" height="64" fill="#0078D4"/>
<path d="M13.5472 19.6C14.3072 19.6 14.9672 19.728 15.5272 19.984C16.0872 20.232 16.5192 20.592 16.8232 21.064C17.1272 21.528 17.2792 22.076 17.2792 22.708C17.2792 23.34 17.1272 23.888 16.8232 24.352C16.5192 24.816 16.0872 25.176 15.5272 25.432C14.9672 25.68 14.3072 25.804 13.5472 25.804H12.0832V28H9.70719V19.6H13.5472ZM13.4032 23.932C13.8912 23.932 14.2592 23.828 14.5072 23.62C14.7552 23.404 14.8792 23.1 14.8792 22.708C14.8792 22.316 14.7552 22.012 14.5072 21.796C14.2592 21.58 13.8912 21.472 13.4032 21.472H12.0832V23.932H13.4032ZM20.5603 22.276C20.7923 21.98 21.0923 21.76 21.4603 21.616C21.8363 21.464 22.2643 21.388 22.7443 21.388V23.44C22.5363 23.416 22.3643 23.404 22.2283 23.404C21.7403 23.404 21.3563 23.536 21.0763 23.8C20.8043 24.064 20.6683 24.468 20.6683 25.012V28H18.3883V21.496H20.5603V22.276ZM26.8905 28.108C26.1945 28.108 25.5665 27.964 25.0065 27.676C24.4465 27.388 24.0065 26.988 23.6865 26.476C23.3745 25.964 23.2185 25.384 23.2185 24.736C23.2185 24.096 23.3745 23.52 23.6865 23.008C24.0065 22.496 24.4425 22.1 24.9945 21.82C25.5545 21.532 26.1865 21.388 26.8905 21.388C27.5945 21.388 28.2265 21.532 28.7865 21.82C29.3465 22.1 29.7825 22.496 30.0945 23.008C30.4065 23.512 30.5625 24.088 30.5625 24.736C30.5625 25.384 30.4065 25.964 30.0945 26.476C29.7825 26.988 29.3465 27.388 28.7865 27.676C28.2265 27.964 27.5945 28.108 26.8905 28.108ZM26.8905 26.296C27.2905 26.296 27.6185 26.16 27.8745 25.888C28.1305 25.608 28.2585 25.224 28.2585 24.736C28.2585 24.256 28.1305 23.88 27.8745 23.608C27.6185 23.336 27.2905 23.2 26.8905 23.2C26.4905 23.2 26.1625 23.336 25.9065 23.608C25.6505 23.88 25.5225 24.256 25.5225 24.736C25.5225 25.224 25.6505 25.608 25.9065 25.888C26.1625 26.16 26.4905 26.296 26.8905 26.296ZM31.3427 30.436C30.6787 30.436 30.1507 30.324 29.7587 30.1L30.3347 28.48C30.5427 28.608 30.7787 28.672 31.0427 28.672C31.2507 28.672 31.4147 28.6 31.5347 28.456C31.6547 28.312 31.7147 28.1 31.7147 27.82V21.496H33.9947V27.832C33.9947 28.632 33.7587 29.264 33.2867 29.728C32.8227 30.2 32.1747 30.436 31.3427 30.436ZM32.8547 20.776C32.4387 20.776 32.1027 20.66 31.8467 20.428C31.5907 20.196 31.4627 19.908 31.4627 19.564C31.4627 19.22 31.5907 18.932 31.8467 18.7C32.1027 18.468 32.4387 18.352 32.8547 18.352C33.2707 18.352 33.6067 18.464 33.8627 18.688C34.1187 18.904 34.2467 19.184 34.2467 19.528C34.2467 19.888 34.1187 20.188 33.8627 20.428C33.6067 20.66 33.2707 20.776 32.8547 20.776ZM42.1105 24.76C42.1105 24.776 42.0985 24.964 42.0745 25.324H37.3465C37.4425 25.66 37.6265 25.92 37.8985 26.104C38.1785 26.28 38.5265 26.368 38.9425 26.368C39.2545 26.368 39.5225 26.324 39.7465 26.236C39.9785 26.148 40.2105 26.004 40.4425 25.804L41.6425 27.052C41.0105 27.756 40.0865 28.108 38.8705 28.108C38.1105 28.108 37.4425 27.964 36.8665 27.676C36.2905 27.388 35.8425 26.988 35.5225 26.476C35.2105 25.964 35.0545 25.384 35.0545 24.736C35.0545 24.096 35.2065 23.524 35.5105 23.02C35.8225 22.508 36.2505 22.108 36.7945 21.82C37.3385 21.532 37.9505 21.388 38.6305 21.388C39.2785 21.388 39.8665 21.524 40.3945 21.796C40.9225 22.06 41.3385 22.448 41.6425 22.96C41.9545 23.464 42.1105 24.064 42.1105 24.76ZM38.6425 23.008C38.2905 23.008 37.9945 23.108 37.7545 23.308C37.5225 23.508 37.3745 23.78 37.3105 24.124H39.9745C39.9105 23.78 39.7585 23.508 39.5185 23.308C39.2865 23.108 38.9945 23.008 38.6425 23.008ZM46.4857 28.108C45.7657 28.108 45.1217 27.964 44.5537 27.676C43.9857 27.388 43.5417 26.988 43.2217 26.476C42.9097 25.964 42.7537 25.384 42.7537 24.736C42.7537 24.088 42.9097 23.512 43.2217 23.008C43.5417 22.496 43.9857 22.1 44.5537 21.82C45.1217 21.532 45.7657 21.388 46.4857 21.388C47.2217 21.388 47.8577 21.548 48.3937 21.868C48.9297 22.18 49.3097 22.616 49.5337 23.176L47.7697 24.076C47.4737 23.492 47.0417 23.2 46.4737 23.2C46.0657 23.2 45.7257 23.336 45.4537 23.608C45.1897 23.88 45.0577 24.256 45.0577 24.736C45.0577 25.224 45.1897 25.608 45.4537 25.888C45.7257 26.16 46.0657 26.296 46.4737 26.296C47.0417 26.296 47.4737 26.004 47.7697 25.42L49.5337 26.32C49.3097 26.88 48.9297 27.32 48.3937 27.64C47.8577 27.952 47.2217 28.108 46.4857 28.108ZM54.9856 27.736C54.7936 27.856 54.5576 27.948 54.2776 28.012C54.0056 28.076 53.7136 28.108 53.4016 28.108C52.5536 28.108 51.9016 27.9 51.4456 27.484C50.9896 27.068 50.7616 26.448 50.7616 25.624V23.44H49.8136V21.736H50.7616V20.044H53.0416V21.736H54.5296V23.44H53.0416V25.6C53.0416 25.832 53.1016 26.016 53.2216 26.152C53.3496 26.28 53.5176 26.344 53.7256 26.344C53.9896 26.344 54.2216 26.276 54.4216 26.14L54.9856 27.736Z" fill="white"/>
<path d="M9.83427 42.768H8.53827V45H6.16227V36.6H10.0023C10.7623 36.6 11.4223 36.728 11.9823 36.984C12.5423 37.232 12.9743 37.592 13.2783 38.064C13.5823 38.528 13.7343 39.076 13.7343 39.708C13.7343 40.316 13.5903 40.848 13.3023 41.304C13.0223 41.752 12.6183 42.104 12.0903 42.36L13.9023 45H11.3583L9.83427 42.768ZM11.3343 39.708C11.3343 39.316 11.2103 39.012 10.9623 38.796C10.7143 38.58 10.3463 38.472 9.85827 38.472H8.53827V40.932H9.85827C10.3463 40.932 10.7143 40.828 10.9623 40.62C11.2103 40.404 11.3343 40.1 11.3343 39.708ZM21.5851 41.76C21.5851 41.776 21.5731 41.964 21.5491 42.324H16.8211C16.9171 42.66 17.1011 42.92 17.3731 43.104C17.6531 43.28 18.0011 43.368 18.4171 43.368C18.7291 43.368 18.9971 43.324 19.2211 43.236C19.4531 43.148 19.6851 43.004 19.9171 42.804L21.1171 44.052C20.4851 44.756 19.5611 45.108 18.3451 45.108C17.5851 45.108 16.9171 44.964 16.3411 44.676C15.7651 44.388 15.3171 43.988 14.9971 43.476C14.6851 42.964 14.5291 42.384 14.5291 41.736C14.5291 41.096 14.6811 40.524 14.9851 40.02C15.2971 39.508 15.7251 39.108 16.2691 38.82C16.8131 38.532 17.4251 38.388 18.1051 38.388C18.7531 38.388 19.3411 38.524 19.8691 38.796C20.3971 39.06 20.8131 39.448 21.1171 39.96C21.4291 40.464 21.5851 41.064 21.5851 41.76ZM18.1171 40.008C17.7651 40.008 17.4691 40.108 17.2291 40.308C16.9971 40.508 16.8491 40.78 16.7851 41.124H19.4491C19.3851 40.78 19.2331 40.508 18.9931 40.308C18.7611 40.108 18.4691 40.008 18.1171 40.008ZM29.4763 38.496V45H27.3043V44.304C27.0643 44.568 26.7763 44.768 26.4403 44.904C26.1043 45.04 25.7483 45.108 25.3723 45.108C24.5323 45.108 23.8603 44.86 23.3563 44.364C22.8603 43.868 22.6123 43.124 22.6123 42.132V38.496H24.8923V41.76C24.8923 42.248 24.9843 42.604 25.1683 42.828C25.3523 43.052 25.6203 43.164 25.9723 43.164C26.3323 43.164 26.6243 43.04 26.8483 42.792C27.0803 42.536 27.1963 42.148 27.1963 41.628V38.496H29.4763ZM35.1809 38.388C35.9889 38.388 36.6369 38.628 37.1249 39.108C37.6209 39.588 37.8689 40.312 37.8689 41.28V45H35.5889V41.652C35.5889 40.764 35.2329 40.32 34.5209 40.32C34.1289 40.32 33.8129 40.448 33.5729 40.704C33.3409 40.96 33.2249 41.344 33.2249 41.856V45H30.9449V38.496H33.1169V39.204C33.3729 38.94 33.6769 38.74 34.0289 38.604C34.3809 38.46 34.7649 38.388 35.1809 38.388ZM39.3004 38.496H41.5804V45H39.3004V38.496ZM40.4404 37.776C40.0244 37.776 39.6884 37.66 39.4324 37.428C39.1764 37.196 39.0484 36.908 39.0484 36.564C39.0484 36.22 39.1764 35.932 39.4324 35.7C39.6884 35.468 40.0244 35.352 40.4404 35.352C40.8564 35.352 41.1924 35.464 41.4484 35.688C41.7044 35.904 41.8324 36.184 41.8324 36.528C41.8324 36.888 41.7044 37.188 41.4484 37.428C41.1924 37.66 40.8564 37.776 40.4404 37.776ZM46.3261 45.108C45.6301 45.108 45.0021 44.964 44.4421 44.676C43.8821 44.388 43.4421 43.988 43.1221 43.476C42.8101 42.964 42.6541 42.384 42.6541 41.736C42.6541 41.096 42.8101 40.52 43.1221 40.008C43.4421 39.496 43.8781 39.1 44.4301 38.82C44.9901 38.532 45.6221 38.388 46.3261 38.388C47.0301 38.388 47.6621 38.532 48.2221 38.82C48.7821 39.1 49.2181 39.496 49.5301 40.008C49.8421 40.512 49.9981 41.088 49.9981 41.736C49.9981 42.384 49.8421 42.964 49.5301 43.476C49.2181 43.988 48.7821 44.388 48.2221 44.676C47.6621 44.964 47.0301 45.108 46.3261 45.108ZM46.3261 43.296C46.7261 43.296 47.0541 43.16 47.3101 42.888C47.5661 42.608 47.6941 42.224 47.6941 41.736C47.6941 41.256 47.5661 40.88 47.3101 40.608C47.0541 40.336 46.7261 40.2 46.3261 40.2C45.9261 40.2 45.5981 40.336 45.3421 40.608C45.0861 40.88 44.9581 41.256 44.9581 41.736C44.9581 42.224 45.0861 42.608 45.3421 42.888C45.5981 43.16 45.9261 43.296 46.3261 43.296ZM55.2903 38.388C56.0983 38.388 56.7463 38.628 57.2343 39.108C57.7303 39.588 57.9783 40.312 57.9783 41.28V45H55.6983V41.652C55.6983 40.764 55.3423 40.32 54.6303 40.32C54.2383 40.32 53.9223 40.448 53.6823 40.704C53.4503 40.96 53.3343 41.344 53.3343 41.856V45H51.0543V38.496H53.2263V39.204C53.4823 38.94 53.7863 38.74 54.1383 38.604C54.4903 38.46 54.8743 38.388 55.2903 38.388Z" fill="white"/>
</svg>
