<svg width="128" height="128" viewBox="0 0 128 128" fill="none" xmlns="http://www.w3.org/2000/svg">
<path d="M85.294 10.6666H42.7065C36.9902 10.6666 31.7082 13.7162 28.8501 18.6666L7.63419 55.4138C6.12699 58.0245 5.3335 60.9856 5.3335 64H64.0002C64.0002 63.6618 64.0892 63.3941 64.2583 63.1013L93.294 12.8102C90.9015 11.429 88.1522 10.6666 85.294 10.6666Z" fill="url(#paint0_linear_849_6256)"/>
<path d="M85.294 10.6666H42.7065C36.9902 10.6666 31.7082 13.7162 28.8501 18.6666L7.63419 55.4138C6.12699 58.0245 5.3335 60.9856 5.3335 64H64.0002C64.0002 63.6618 64.0892 63.3941 64.2583 63.1013L93.294 12.8102C90.9015 11.429 88.1522 10.6666 85.294 10.6666Z" fill="url(#paint1_linear_849_6256)"/>
<path d="M85.294 10.6666H42.7065C36.9902 10.6666 31.7082 13.7162 28.8501 18.6666L7.63419 55.4138C6.12699 58.0245 5.3335 60.9856 5.3335 64H64.0002C64.0002 63.6618 64.0892 63.3941 64.2583 63.1013L93.294 12.8102C90.9015 11.429 88.1522 10.6666 85.294 10.6666Z" fill="url(#paint2_linear_849_6256)"/>
<path d="M85.294 10.6666H42.7065C36.9902 10.6666 31.7082 13.7162 28.8501 18.6666L7.63419 55.4138C6.12699 58.0245 5.3335 60.9856 5.3335 64H64.0002C64.0002 63.6618 64.0892 63.3941 64.2583 63.1013L93.294 12.8102C90.9015 11.429 88.1522 10.6666 85.294 10.6666Z" fill="url(#paint3_linear_849_6256)"/>
<path d="M85.294 117.333H42.7065C36.9902 117.333 31.7082 114.284 28.8501 109.333L7.63419 72.5861C6.13776 69.9941 5.34475 66.992 5.3335 64H64.0002C64.0002 64.2539 64.0668 64.5675 64.1938 64.7872L93.2935 115.19C90.9015 116.571 88.1522 117.333 85.294 117.333Z" fill="url(#paint4_linear_849_6256)"/>
<path d="M85.294 117.333H42.7065C36.9902 117.333 31.7082 114.284 28.8501 109.333L7.63419 72.5861C6.13776 69.9941 5.34475 66.992 5.3335 64H64.0002C64.0002 64.2539 64.0668 64.5675 64.1938 64.7872L93.2935 115.19C90.9015 116.571 88.1522 117.333 85.294 117.333Z" fill="url(#paint5_linear_849_6256)"/>
<path d="M85.294 117.333H42.7065C36.9902 117.333 31.7082 114.284 28.8501 109.333L7.63419 72.5861C6.13776 69.9941 5.34475 66.992 5.3335 64H64.0002C64.0002 64.2539 64.0668 64.5675 64.1938 64.7872L93.2935 115.19C90.9015 116.571 88.1522 117.333 85.294 117.333Z" fill="url(#paint6_linear_849_6256)"/>
<path d="M120.366 72.5856L99.1499 109.333C97.7211 111.808 95.6859 113.808 93.2933 115.189L64.1936 64.7867C64.0667 64.567 64 64.3179 64 64.064C64 63.7259 64.0891 63.3936 64.2581 63.1008L93.2939 12.8099C95.6859 14.1911 97.7211 16.1911 99.1499 18.6663L120.366 55.4134C121.873 58.024 122.667 60.9851 122.667 63.9995C122.667 67.0139 121.873 69.9755 120.366 72.5856Z" fill="url(#paint7_linear_849_6256)"/>
<path d="M120.366 72.5856L99.1499 109.333C97.7211 111.808 95.6859 113.808 93.2933 115.189L64.1936 64.7867C64.0667 64.567 64 64.3179 64 64.064C64 63.7259 64.0891 63.3936 64.2581 63.1008L93.2939 12.8099C95.6859 14.1911 97.7211 16.1911 99.1499 18.6663L120.366 55.4134C121.873 58.024 122.667 60.9851 122.667 63.9995C122.667 67.0139 121.873 69.9755 120.366 72.5856Z" fill="url(#paint8_linear_849_6256)"/>
<path d="M120.366 72.5856L99.1499 109.333C97.7211 111.808 95.6859 113.808 93.2933 115.189L64.1936 64.7867C64.0667 64.567 64 64.3179 64 64.064C64 63.7259 64.0891 63.3936 64.2581 63.1008L93.2939 12.8099C95.6859 14.1911 97.7211 16.1911 99.1499 18.6663L120.366 55.4134C121.873 58.024 122.667 60.9851 122.667 63.9995C122.667 67.0139 121.873 69.9755 120.366 72.5856Z" fill="url(#paint9_linear_849_6256)"/>
<path d="M74.5419 82.703L64.1979 64.7867L63.7397 63.9995L74.5254 45.3334L85.3227 64.0379L74.5419 82.703Z" fill="url(#paint10_linear_849_6256)"/>
<path d="M96.0769 82.6666L86.8353 98.6666C86.3591 99.4917 85.6807 100.158 84.8833 100.619L75.1191 83.7066L74.542 82.7029L85.3228 64.0378L96.0769 82.6666Z" fill="url(#paint11_linear_849_6256)"/>
<path d="M86.8378 29.3336C86.361 28.5086 85.6831 27.8419 84.8853 27.3815L74.521 45.3336L85.3183 64.0378L96.0959 45.3718L86.8378 29.3336Z" fill="url(#paint12_linear_849_6256)"/>
<path d="M84.8788 27.3811C84.0814 26.9208 83.1652 26.6666 82.2121 26.6666H67.1166C65.211 26.6666 63.4505 27.6832 62.498 29.3333L53.2603 45.3333H69.331H74.514L84.8788 27.3811Z" fill="url(#paint13_linear_849_6256)"/>
<path d="M45.7836 26.6666C43.8782 26.6666 42.1175 27.6832 41.1648 29.3333L31.9272 45.3333H53.2606L62.4983 29.3333C63.4508 27.6832 65.2114 26.6666 67.117 26.6666H45.7836Z" fill="url(#paint14_linear_849_6256)"/>
<path d="M63.9998 64.0646C63.9998 63.7264 64.0889 63.3942 64.258 63.1014L74.5161 45.3334H69.3332H53.2623L42.8236 63.4139C42.7207 63.592 42.6665 63.7984 42.6665 64.0043L42.6683 64.0646H63.9998Z" fill="url(#paint15_linear_849_6256)"/>
<path d="M82.2103 101.333C83.1634 101.333 84.0796 101.079 84.877 100.619L75.1132 83.7071L74.5335 82.7029H53.2397L62.4962 98.6666C63.4487 100.317 65.2092 101.333 67.1148 101.333H82.2103Z" fill="url(#paint16_linear_849_6256)"/>
<path d="M63.9998 64C63.9998 64.2539 64.0665 64.5675 64.1934 64.7872L74.5369 82.7029H53.2436L42.8236 64.5861C42.7315 64.4267 42.6784 64.248 42.6683 64.0645L42.6665 64.0048L63.9998 64Z" fill="url(#paint17_linear_849_6256)"/>
<path d="M41.1644 98.6666C42.1171 100.317 43.8778 101.333 45.7832 101.333H67.1167C65.2111 101.333 63.4505 100.317 62.498 98.6666L53.2414 82.7029H31.9478L41.1644 98.6666Z" fill="url(#paint18_linear_849_6256)"/>
<path d="M104.853 60.5338L96.1009 45.3723L85.3228 64.0383L96.0774 82.6677L104.861 67.4533C105.176 66.9034 105.459 66.4079 105.705 65.9759C106.054 65.3626 106.229 64.6815 106.229 64.0005C106.229 63.3194 106.054 62.6389 105.705 62.025C105.457 61.5893 105.171 61.0895 104.853 60.5338Z" fill="url(#paint19_linear_849_6256)"/>
<path d="M21.8028 64.0646H42.6727L42.6709 64.0043C42.6709 63.7984 42.7251 63.592 42.8279 63.4139L53.2667 45.3334H31.9401C27.993 52.17 24.1595 58.8182 22.3294 62.0198C21.978 62.6347 21.8022 63.3174 21.8022 64C21.8022 64.0214 21.8024 64.0432 21.8028 64.0646Z" fill="url(#paint20_linear_849_6256)"/>
<path d="M31.9611 82.704H53.248L42.828 64.5872C42.7358 64.4272 42.6828 64.2486 42.6727 64.0656L42.6709 64.0054H21.8022C21.803 64.6864 21.9787 65.3675 22.3294 65.9808C24.1628 69.1883 28.0067 75.8544 31.9611 82.704Z" fill="url(#paint21_linear_849_6256)"/>
<defs>
<linearGradient id="paint0_linear_849_6256" x1="5.3335" y1="10.6666" x2="52.6234" y2="88.6597" gradientUnits="userSpaceOnUse">
<stop stop-color="#9DEAFF"/>
<stop offset="1" stop-color="#3BD5FF"/>
</linearGradient>
<linearGradient id="paint1_linear_849_6256" x1="5.3335" y1="10.6666" x2="52.6234" y2="88.6597" gradientUnits="userSpaceOnUse">
<stop stop-color="#3BD5FF"/>
<stop offset="1" stop-color="#0FAFFF"/>
</linearGradient>
<linearGradient id="paint2_linear_849_6256" x1="5.3335" y1="10.6666" x2="52.6234" y2="88.6597" gradientUnits="userSpaceOnUse">
<stop stop-color="#9DEAFF"/>
<stop offset="1" stop-color="#3BD5FF"/>
</linearGradient>
<linearGradient id="paint3_linear_849_6256" x1="5.3335" y1="10.6666" x2="52.6234" y2="88.6597" gradientUnits="userSpaceOnUse">
<stop stop-color="#3BD5FF"/>
<stop offset="1" stop-color="#0FAFFF"/>
</linearGradient>
<linearGradient id="paint4_linear_849_6256" x1="5.3335" y1="64" x2="52.6235" y2="141.993" gradientUnits="userSpaceOnUse">
<stop stop-color="#0078D4"/>
<stop offset="1" stop-color="#004695"/>
</linearGradient>
<linearGradient id="paint5_linear_849_6256" x1="5.3335" y1="64" x2="52.6235" y2="141.993" gradientUnits="userSpaceOnUse">
<stop stop-color="#0FAFFF"/>
<stop offset="1" stop-color="#0078D4"/>
</linearGradient>
<linearGradient id="paint6_linear_849_6256" x1="5.3335" y1="64" x2="52.6235" y2="141.993" gradientUnits="userSpaceOnUse">
<stop stop-color="#0078D4"/>
<stop offset="1" stop-color="#004695"/>
</linearGradient>
<linearGradient id="paint7_linear_849_6256" x1="64" y1="12.8099" x2="152.329" y2="63.4251" gradientUnits="userSpaceOnUse">
<stop stop-color="#0FAFFF"/>
<stop offset="1" stop-color="#0078D4"/>
</linearGradient>
<linearGradient id="paint8_linear_849_6256" x1="64" y1="12.8099" x2="152.329" y2="63.4251" gradientUnits="userSpaceOnUse">
<stop stop-color="#3BD5FF"/>
<stop offset="1" stop-color="#0FAFFF"/>
</linearGradient>
<linearGradient id="paint9_linear_849_6256" x1="64" y1="12.8099" x2="152.329" y2="63.4251" gradientUnits="userSpaceOnUse">
<stop stop-color="#0FAFFF"/>
<stop offset="1" stop-color="#0078D4"/>
</linearGradient>
<linearGradient id="paint10_linear_849_6256" x1="74.5312" y1="45.3334" x2="89.7285" y2="74.888" gradientUnits="userSpaceOnUse">
<stop stop-color="#9DEAFF"/>
<stop offset="1" stop-color="#3BD5FF"/>
</linearGradient>
<linearGradient id="paint11_linear_849_6256" x1="85.3095" y1="64.0378" x2="100.02" y2="93.1973" gradientUnits="userSpaceOnUse">
<stop stop-color="#9DEAFF"/>
<stop offset="1" stop-color="#3BD5FF"/>
</linearGradient>
<linearGradient id="paint12_linear_849_6256" x1="85.3082" y1="27.3815" x2="100.051" y2="56.5989" gradientUnits="userSpaceOnUse">
<stop stop-color="#9DEAFF"/>
<stop offset="1" stop-color="#3BD5FF"/>
</linearGradient>
<linearGradient id="paint13_linear_849_6256" x1="69.0697" y1="26.6666" x2="72.2446" y2="44.7765" gradientUnits="userSpaceOnUse">
<stop stop-color="#CEF4FF"/>
<stop offset="1" stop-color="#9DEAFF"/>
</linearGradient>
<linearGradient id="paint14_linear_849_6256" x1="49.5221" y1="26.6666" x2="52.3917" y2="44.8812" gradientUnits="userSpaceOnUse">
<stop stop-color="#CEF4FF"/>
<stop offset="1" stop-color="#9DEAFF"/>
</linearGradient>
<linearGradient id="paint15_linear_849_6256" x1="58.5913" y1="45.3334" x2="61.7662" y2="63.5099" gradientUnits="userSpaceOnUse">
<stop stop-color="#CEF4FF"/>
<stop offset="1" stop-color="#9DEAFF"/>
</linearGradient>
<linearGradient id="paint16_linear_849_6256" x1="53.2397" y1="82.7029" x2="69.5319" y2="110.37" gradientUnits="userSpaceOnUse">
<stop stop-color="#3BD5FF"/>
<stop offset="1" stop-color="#0FAFFF"/>
</linearGradient>
<linearGradient id="paint17_linear_849_6256" x1="42.6665" y1="64" x2="58.995" y2="91.824" gradientUnits="userSpaceOnUse">
<stop stop-color="#3BD5FF"/>
<stop offset="1" stop-color="#0FAFFF"/>
</linearGradient>
<linearGradient id="paint18_linear_849_6256" x1="31.9478" y1="82.7029" x2="47.361" y2="111.799" gradientUnits="userSpaceOnUse">
<stop stop-color="#3BD5FF"/>
<stop offset="1" stop-color="#0FAFFF"/>
</linearGradient>
<linearGradient id="paint19_linear_849_6256" x1="95.7761" y1="45.3723" x2="111.205" y2="74.4933" gradientUnits="userSpaceOnUse">
<stop stop-color="#9DEAFF"/>
<stop offset="1" stop-color="#3BD5FF"/>
</linearGradient>
<linearGradient id="paint20_linear_849_6256" x1="37.5345" y1="45.3334" x2="40.7459" y2="63.4971" gradientUnits="userSpaceOnUse">
<stop stop-color="#CEF4FF"/>
<stop offset="1" stop-color="#9DEAFF"/>
</linearGradient>
<linearGradient id="paint21_linear_849_6256" x1="21.8022" y1="64.0054" x2="38.2308" y2="91.6336" gradientUnits="userSpaceOnUse">
<stop stop-color="#3BD5FF"/>
<stop offset="1" stop-color="#0FAFFF"/>
</linearGradient>
</defs>
</svg>
