<svg width="64" height="64" viewBox="0 0 64 64" fill="none" xmlns="http://www.w3.org/2000/svg">
<path d="M42.6468 5.33337H21.353C18.4949 5.33337 15.8539 6.85817 14.4248 9.33337L3.81685 27.707C3.06325 29.0123 2.6665 30.4928 2.6665 32H31.9998C31.9998 31.831 32.0444 31.6971 32.1289 31.5507L46.6468 6.40516C45.4505 5.71457 44.0758 5.33337 42.6468 5.33337Z" fill="url(#paint0_linear_849_6233)"/>
<path d="M42.6468 5.33337H21.353C18.4949 5.33337 15.8539 6.85817 14.4248 9.33337L3.81685 27.707C3.06325 29.0123 2.6665 30.4928 2.6665 32H31.9998C31.9998 31.831 32.0444 31.6971 32.1289 31.5507L46.6468 6.40516C45.4505 5.71457 44.0758 5.33337 42.6468 5.33337Z" fill="url(#paint1_linear_849_6233)"/>
<path d="M42.6468 5.33337H21.353C18.4949 5.33337 15.8539 6.85817 14.4248 9.33337L3.81685 27.707C3.06325 29.0123 2.6665 30.4928 2.6665 32H31.9998C31.9998 31.831 32.0444 31.6971 32.1289 31.5507L46.6468 6.40516C45.4505 5.71457 44.0758 5.33337 42.6468 5.33337Z" fill="url(#paint2_linear_849_6233)"/>
<path d="M42.6468 5.33337H21.353C18.4949 5.33337 15.8539 6.85817 14.4248 9.33337L3.81685 27.707C3.06325 29.0123 2.6665 30.4928 2.6665 32H31.9998C31.9998 31.831 32.0444 31.6971 32.1289 31.5507L46.6468 6.40516C45.4505 5.71457 44.0758 5.33337 42.6468 5.33337Z" fill="url(#paint3_linear_849_6233)"/>
<path d="M42.6468 58.6667H21.353C18.4949 58.6667 15.8539 57.1419 14.4248 54.6667L3.81685 36.2931C3.06864 34.9971 2.67213 33.496 2.6665 32H31.9998C31.9998 32.1269 32.0332 32.2837 32.0966 32.3936L46.6465 57.5949C45.4505 58.2856 44.0758 58.6667 42.6468 58.6667Z" fill="url(#paint4_linear_849_6233)"/>
<path d="M42.6468 58.6667H21.353C18.4949 58.6667 15.8539 57.1419 14.4248 54.6667L3.81685 36.2931C3.06864 34.9971 2.67213 33.496 2.6665 32H31.9998C31.9998 32.1269 32.0332 32.2837 32.0966 32.3936L46.6465 57.5949C45.4505 58.2856 44.0758 58.6667 42.6468 58.6667Z" fill="url(#paint5_linear_849_6233)"/>
<path d="M42.6468 58.6667H21.353C18.4949 58.6667 15.8539 57.1419 14.4248 54.6667L3.81685 36.2931C3.06864 34.9971 2.67213 33.496 2.6665 32H31.9998C31.9998 32.1269 32.0332 32.2837 32.0966 32.3936L46.6465 57.5949C45.4505 58.2856 44.0758 58.6667 42.6468 58.6667Z" fill="url(#paint6_linear_849_6233)"/>
<path d="M60.1829 36.2927L49.5749 54.6664C48.8605 55.904 47.8429 56.9039 46.6467 57.5946L32.0968 32.3933C32.0333 32.2834 32 32.1589 32 32.0319C32 31.8629 32.0445 31.6967 32.1291 31.5503L46.6469 6.40491C47.8429 7.09549 48.8605 8.09549 49.5749 9.33309L60.1829 27.7066C60.9365 29.0119 61.3333 30.4925 61.3333 31.9997C61.3333 33.5069 60.9365 34.9877 60.1829 36.2927Z" fill="url(#paint7_linear_849_6233)"/>
<path d="M60.1829 36.2927L49.5749 54.6664C48.8605 55.904 47.8429 56.9039 46.6467 57.5946L32.0968 32.3933C32.0333 32.2834 32 32.1589 32 32.0319C32 31.8629 32.0445 31.6967 32.1291 31.5503L46.6469 6.40491C47.8429 7.09549 48.8605 8.09549 49.5749 9.33309L60.1829 27.7066C60.9365 29.0119 61.3333 30.4925 61.3333 31.9997C61.3333 33.5069 60.9365 34.9877 60.1829 36.2927Z" fill="url(#paint8_linear_849_6233)"/>
<path d="M60.1829 36.2927L49.5749 54.6664C48.8605 55.904 47.8429 56.9039 46.6467 57.5946L32.0968 32.3933C32.0333 32.2834 32 32.1589 32 32.0319C32 31.8629 32.0445 31.6967 32.1291 31.5503L46.6469 6.40491C47.8429 7.09549 48.8605 8.09549 49.5749 9.33309L60.1829 27.7066C60.9365 29.0119 61.3333 30.4925 61.3333 31.9997C61.3333 33.5069 60.9365 34.9877 60.1829 36.2927Z" fill="url(#paint9_linear_849_6233)"/>
<path d="M37.2707 41.3514L32.0987 32.3933L31.8696 31.9997L37.2624 22.6666L42.6611 32.0189L37.2707 41.3514Z" fill="url(#paint10_linear_849_6233)"/>
<path d="M48.0385 41.3333L43.4177 49.3333C43.1795 49.7459 42.8403 50.0792 42.4417 50.3093L37.5595 41.8533L37.271 41.3515L42.6614 32.0189L48.0385 41.3333Z" fill="url(#paint11_linear_849_6233)"/>
<path d="M43.4191 14.6669C43.1807 14.2543 42.8418 13.921 42.4429 13.6908L37.2607 22.6669L42.6594 32.019L48.0482 22.6859L43.4191 14.6669Z" fill="url(#paint12_linear_849_6233)"/>
<path d="M42.4396 13.6906C42.041 13.4604 41.5828 13.3334 41.1063 13.3334H33.5586C32.6058 13.3334 31.7255 13.8416 31.2492 14.6667L26.6304 22.6667H34.6658H37.2572L42.4396 13.6906Z" fill="url(#paint13_linear_849_6233)"/>
<path d="M22.8916 13.3334C21.9389 13.3334 21.0585 13.8416 20.5822 14.6667L15.9634 22.6667H26.63L31.2489 14.6667C31.7252 13.8416 32.6054 13.3334 33.5582 13.3334H22.8916Z" fill="url(#paint14_linear_849_6233)"/>
<path d="M32.0002 32.0322C32.0002 31.8632 32.0447 31.697 32.1292 31.5506L37.2583 22.6666H34.6668H26.6314L21.412 31.7069C21.3606 31.796 21.3335 31.8992 21.3335 32.0021L21.3344 32.0322H32.0002Z" fill="url(#paint15_linear_849_6233)"/>
<path d="M41.1049 50.6666C41.5814 50.6666 42.0396 50.5397 42.4382 50.3096L37.5564 41.8536L37.2665 41.3514H26.6196L31.2478 49.3333C31.7241 50.1584 32.6044 50.6666 33.5572 50.6666H41.1049Z" fill="url(#paint16_linear_849_6233)"/>
<path d="M32.0002 32C32.0002 32.1269 32.0335 32.2837 32.097 32.3936L37.2687 41.3515H26.622L21.412 32.2931C21.366 32.2133 21.3394 32.124 21.3344 32.0323L21.3335 32.0024L32.0002 32Z" fill="url(#paint17_linear_849_6233)"/>
<path d="M20.5824 49.3333C21.0588 50.1584 21.9391 50.6666 22.8919 50.6666H33.5586C32.6058 50.6666 31.7255 50.1584 31.2492 49.3333L26.6209 41.3514H15.9741L20.5824 49.3333Z" fill="url(#paint18_linear_849_6233)"/>
<path d="M52.4262 30.2669L48.0502 22.6862L42.6611 32.0192L48.0385 41.3338L52.4302 33.7266C52.5875 33.4517 52.7291 33.204 52.8521 32.988C53.027 32.6813 53.1145 32.3408 53.1145 32.0002C53.1145 31.6597 53.027 31.3194 52.8521 31.0125C52.7281 30.7946 52.5851 30.5448 52.4262 30.2669Z" fill="url(#paint19_linear_849_6233)"/>
<path d="M10.9011 32.0322H21.3361L21.3352 32.0021C21.3352 31.8992 21.3623 31.796 21.4137 31.7069L26.6331 22.6666H15.9698C13.9962 26.0849 12.0795 29.409 11.1645 31.0098C10.9887 31.3173 10.9009 31.6586 10.9009 32C10.9009 32.0106 10.901 32.0216 10.9011 32.0322Z" fill="url(#paint20_linear_849_6233)"/>
<path d="M15.9803 41.352H26.6237L21.4137 32.2936C21.3677 32.2136 21.3411 32.1243 21.3361 32.0328L21.3352 32.0027H10.9009C10.9013 32.3432 10.9891 32.6838 11.1645 32.9904C12.0811 34.5942 14.0031 37.9272 15.9803 41.352Z" fill="url(#paint21_linear_849_6233)"/>
<defs>
<linearGradient id="paint0_linear_849_6233" x1="2.6665" y1="5.33337" x2="26.3115" y2="44.3299" gradientUnits="userSpaceOnUse">
<stop stop-color="#9DEAFF"/>
<stop offset="1" stop-color="#3BD5FF"/>
</linearGradient>
<linearGradient id="paint1_linear_849_6233" x1="2.6665" y1="5.33337" x2="26.3115" y2="44.3299" gradientUnits="userSpaceOnUse">
<stop stop-color="#3BD5FF"/>
<stop offset="1" stop-color="#0FAFFF"/>
</linearGradient>
<linearGradient id="paint2_linear_849_6233" x1="2.6665" y1="5.33337" x2="26.3115" y2="44.3299" gradientUnits="userSpaceOnUse">
<stop stop-color="#9DEAFF"/>
<stop offset="1" stop-color="#3BD5FF"/>
</linearGradient>
<linearGradient id="paint3_linear_849_6233" x1="2.6665" y1="5.33337" x2="26.3115" y2="44.3299" gradientUnits="userSpaceOnUse">
<stop stop-color="#3BD5FF"/>
<stop offset="1" stop-color="#0FAFFF"/>
</linearGradient>
<linearGradient id="paint4_linear_849_6233" x1="2.6665" y1="32" x2="26.3115" y2="70.9965" gradientUnits="userSpaceOnUse">
<stop stop-color="#0078D4"/>
<stop offset="1" stop-color="#004695"/>
</linearGradient>
<linearGradient id="paint5_linear_849_6233" x1="2.6665" y1="32" x2="26.3115" y2="70.9965" gradientUnits="userSpaceOnUse">
<stop stop-color="#0FAFFF"/>
<stop offset="1" stop-color="#0078D4"/>
</linearGradient>
<linearGradient id="paint6_linear_849_6233" x1="2.6665" y1="32" x2="26.3115" y2="70.9965" gradientUnits="userSpaceOnUse">
<stop stop-color="#0078D4"/>
<stop offset="1" stop-color="#004695"/>
</linearGradient>
<linearGradient id="paint7_linear_849_6233" x1="32" y1="6.40491" x2="76.1645" y2="31.7125" gradientUnits="userSpaceOnUse">
<stop stop-color="#0FAFFF"/>
<stop offset="1" stop-color="#0078D4"/>
</linearGradient>
<linearGradient id="paint8_linear_849_6233" x1="32" y1="6.40491" x2="76.1645" y2="31.7125" gradientUnits="userSpaceOnUse">
<stop stop-color="#3BD5FF"/>
<stop offset="1" stop-color="#0FAFFF"/>
</linearGradient>
<linearGradient id="paint9_linear_849_6233" x1="32" y1="6.40491" x2="76.1645" y2="31.7125" gradientUnits="userSpaceOnUse">
<stop stop-color="#0FAFFF"/>
<stop offset="1" stop-color="#0078D4"/>
</linearGradient>
<linearGradient id="paint10_linear_849_6233" x1="37.2654" y1="22.6666" x2="44.864" y2="37.444" gradientUnits="userSpaceOnUse">
<stop stop-color="#9DEAFF"/>
<stop offset="1" stop-color="#3BD5FF"/>
</linearGradient>
<linearGradient id="paint11_linear_849_6233" x1="42.6547" y1="32.0189" x2="50.0099" y2="46.5987" gradientUnits="userSpaceOnUse">
<stop stop-color="#9DEAFF"/>
<stop offset="1" stop-color="#3BD5FF"/>
</linearGradient>
<linearGradient id="paint12_linear_849_6233" x1="42.6543" y1="13.6908" x2="50.0258" y2="28.2995" gradientUnits="userSpaceOnUse">
<stop stop-color="#9DEAFF"/>
<stop offset="1" stop-color="#3BD5FF"/>
</linearGradient>
<linearGradient id="paint13_linear_849_6233" x1="34.5351" y1="13.3334" x2="36.1226" y2="22.3883" gradientUnits="userSpaceOnUse">
<stop stop-color="#CEF4FF"/>
<stop offset="1" stop-color="#9DEAFF"/>
</linearGradient>
<linearGradient id="paint14_linear_849_6233" x1="24.7608" y1="13.3334" x2="26.1956" y2="22.4407" gradientUnits="userSpaceOnUse">
<stop stop-color="#CEF4FF"/>
<stop offset="1" stop-color="#9DEAFF"/>
</linearGradient>
<linearGradient id="paint15_linear_849_6233" x1="29.2959" y1="22.6666" x2="30.8834" y2="31.7549" gradientUnits="userSpaceOnUse">
<stop stop-color="#CEF4FF"/>
<stop offset="1" stop-color="#9DEAFF"/>
</linearGradient>
<linearGradient id="paint16_linear_849_6233" x1="26.6196" y1="41.3514" x2="34.7657" y2="55.1848" gradientUnits="userSpaceOnUse">
<stop stop-color="#3BD5FF"/>
<stop offset="1" stop-color="#0FAFFF"/>
</linearGradient>
<linearGradient id="paint17_linear_849_6233" x1="21.3335" y1="32" x2="29.4978" y2="45.912" gradientUnits="userSpaceOnUse">
<stop stop-color="#3BD5FF"/>
<stop offset="1" stop-color="#0FAFFF"/>
</linearGradient>
<linearGradient id="paint18_linear_849_6233" x1="15.9741" y1="41.3514" x2="23.6807" y2="55.8994" gradientUnits="userSpaceOnUse">
<stop stop-color="#3BD5FF"/>
<stop offset="1" stop-color="#0FAFFF"/>
</linearGradient>
<linearGradient id="paint19_linear_849_6233" x1="47.8878" y1="22.6862" x2="55.6022" y2="37.2466" gradientUnits="userSpaceOnUse">
<stop stop-color="#9DEAFF"/>
<stop offset="1" stop-color="#3BD5FF"/>
</linearGradient>
<linearGradient id="paint20_linear_849_6233" x1="18.767" y1="22.6666" x2="20.3727" y2="31.7485" gradientUnits="userSpaceOnUse">
<stop stop-color="#CEF4FF"/>
<stop offset="1" stop-color="#9DEAFF"/>
</linearGradient>
<linearGradient id="paint21_linear_849_6233" x1="10.9009" y1="32.0027" x2="19.1152" y2="45.8168" gradientUnits="userSpaceOnUse">
<stop stop-color="#3BD5FF"/>
<stop offset="1" stop-color="#0FAFFF"/>
</linearGradient>
</defs>
</svg>
