<svg width="768" height="768" viewBox="0 0 768 768" fill="none" xmlns="http://www.w3.org/2000/svg">
<path d="M511.763 64H256.238C221.94 64 190.248 82.2976 173.1 112L45.8042 332.483C36.761 348.147 32 365.914 32 384H384C384 381.971 384.534 380.365 385.549 378.608L559.763 76.8614C545.408 68.5744 528.912 64 511.763 64Z" fill="url(#paint0_linear_849_6304)"/>
<path d="M511.763 64H256.238C221.94 64 190.248 82.2976 173.1 112L45.8042 332.483C36.761 348.147 32 365.914 32 384H384C384 381.971 384.534 380.365 385.549 378.608L559.763 76.8614C545.408 68.5744 528.912 64 511.763 64Z" fill="url(#paint1_linear_849_6304)"/>
<path d="M511.763 64H256.238C221.94 64 190.248 82.2976 173.1 112L45.8042 332.483C36.761 348.147 32 365.914 32 384H384C384 381.971 384.534 380.365 385.549 378.608L559.763 76.8614C545.408 68.5744 528.912 64 511.763 64Z" fill="url(#paint2_linear_849_6304)"/>
<path d="M511.763 64H256.238C221.94 64 190.248 82.2976 173.1 112L45.8042 332.483C36.761 348.147 32 365.914 32 384H384C384 381.971 384.534 380.365 385.549 378.608L559.763 76.8614C545.408 68.5744 528.912 64 511.763 64Z" fill="url(#paint3_linear_849_6304)"/>
<path d="M511.763 704H256.238C221.94 704 190.248 685.702 173.1 656L45.8042 435.517C36.8256 419.965 32.0675 401.952 32 384H384C384 385.523 384.4 387.405 385.162 388.723L559.76 691.139C545.408 699.427 528.912 704 511.763 704Z" fill="url(#paint4_linear_849_6304)"/>
<path d="M511.763 704H256.238C221.94 704 190.248 685.702 173.1 656L45.8042 435.517C36.8256 419.965 32.0675 401.952 32 384H384C384 385.523 384.4 387.405 385.162 388.723L559.76 691.139C545.408 699.427 528.912 704 511.763 704Z" fill="url(#paint5_linear_849_6304)"/>
<path d="M511.763 704H256.238C221.94 704 190.248 685.702 173.1 656L45.8042 435.517C36.8256 419.965 32.0675 401.952 32 384H384C384 385.523 384.4 387.405 385.162 388.723L559.76 691.139C545.408 699.427 528.912 704 511.763 704Z" fill="url(#paint6_linear_849_6304)"/>
<path d="M722.195 435.514L594.899 655.997C586.326 670.848 574.115 682.848 559.76 691.136L385.162 388.72C384.4 387.402 384 385.907 384 384.384C384 382.355 384.534 380.362 385.549 378.605L559.763 76.8595C574.115 85.1465 586.326 97.1465 594.899 111.998L722.195 332.48C731.238 348.144 736 365.91 736 383.997C736 402.083 731.238 419.853 722.195 435.514Z" fill="url(#paint7_linear_849_6304)"/>
<path d="M722.195 435.514L594.899 655.997C586.326 670.848 574.115 682.848 559.76 691.136L385.162 388.72C384.4 387.402 384 385.907 384 384.384C384 382.355 384.534 380.362 385.549 378.605L559.763 76.8595C574.115 85.1465 586.326 97.1465 594.899 111.998L722.195 332.48C731.238 348.144 736 365.91 736 383.997C736 402.083 731.238 419.853 722.195 435.514Z" fill="url(#paint8_linear_849_6304)"/>
<path d="M722.195 435.514L594.899 655.997C586.326 670.848 574.115 682.848 559.76 691.136L385.162 388.72C384.4 387.402 384 385.907 384 384.384C384 382.355 384.534 380.362 385.549 378.605L559.763 76.8595C574.115 85.1465 586.326 97.1465 594.899 111.998L722.195 332.48C731.238 348.144 736 365.91 736 383.997C736 402.083 731.238 419.853 722.195 435.514Z" fill="url(#paint9_linear_849_6304)"/>
<path d="M447.251 496.218L385.187 388.72L382.438 383.997L447.152 272L511.936 384.227L447.251 496.218Z" fill="url(#paint10_linear_849_6304)"/>
<path d="M576.461 496L521.011 592C518.153 596.95 514.083 600.95 509.299 603.712L450.713 502.24L447.251 496.218L511.936 384.227L576.461 496Z" fill="url(#paint11_linear_849_6304)"/>
<path d="M521.027 176.002C518.166 171.052 514.099 167.052 509.312 164.289L447.126 272.002L511.91 384.227L576.576 272.231L521.027 176.002Z" fill="url(#paint12_linear_849_6304)"/>
<path d="M509.274 164.287C504.49 161.525 498.992 160 493.274 160H402.701C391.267 160 380.704 166.099 374.989 176L319.562 272H415.987H447.085L509.274 164.287Z" fill="url(#paint13_linear_849_6304)"/>
<path d="M274.701 160C263.268 160 252.704 166.099 246.988 176L191.562 272H319.563L374.989 176C380.704 166.099 391.267 160 402.701 160H274.701Z" fill="url(#paint14_linear_849_6304)"/>
<path d="M384 384.387C384 382.358 384.534 380.365 385.549 378.608L447.098 272H416H319.575L256.942 380.483C256.325 381.552 256 382.79 256 384.026L256.011 384.387H384Z" fill="url(#paint15_linear_849_6304)"/>
<path d="M493.261 608C498.979 608 504.477 606.477 509.261 603.715L450.678 502.243L447.2 496.218H319.438L374.976 592C380.691 601.901 391.254 608 402.688 608H493.261Z" fill="url(#paint16_linear_849_6304)"/>
<path d="M384 384C384 385.523 384.4 387.405 385.162 388.723L447.222 496.218H319.462L256.942 387.517C256.39 386.56 256.071 385.488 256.011 384.387L256 384.029L384 384Z" fill="url(#paint17_linear_849_6304)"/>
<path d="M246.987 592C252.704 601.901 263.268 608 274.7 608H402.701C391.267 608 380.704 601.901 374.989 592L319.449 496.218H191.688L246.987 592Z" fill="url(#paint18_linear_849_6304)"/>
<path d="M629.117 363.203L576.605 272.234L511.936 384.23L576.464 496.006L629.165 404.72C631.053 401.421 632.752 398.448 634.227 395.856C636.326 392.176 637.376 388.09 637.376 384.003C637.376 379.917 636.326 375.834 634.227 372.15C632.739 369.536 631.024 366.538 629.117 363.203Z" fill="url(#paint19_linear_849_6304)"/>
<path d="M130.816 384.387H256.035L256.024 384.026C256.024 382.79 256.349 381.552 256.967 380.483L319.599 272H191.639C167.957 313.02 144.956 352.909 133.975 372.118C131.867 375.808 130.812 379.904 130.812 384C130.812 384.128 130.813 384.259 130.816 384.387Z" fill="url(#paint20_linear_849_6304)"/>
<path d="M191.766 496.224H319.487L256.967 387.523C256.414 386.563 256.096 385.491 256.035 384.394L256.024 384.032H130.812C130.817 388.118 131.871 392.205 133.975 395.885C144.976 415.13 168.039 455.126 191.766 496.224Z" fill="url(#paint21_linear_849_6304)"/>
<defs>
<linearGradient id="paint0_linear_849_6304" x1="32" y1="64" x2="315.74" y2="531.958" gradientUnits="userSpaceOnUse">
<stop stop-color="#9DEAFF"/>
<stop offset="1" stop-color="#3BD5FF"/>
</linearGradient>
<linearGradient id="paint1_linear_849_6304" x1="32" y1="64" x2="315.74" y2="531.958" gradientUnits="userSpaceOnUse">
<stop stop-color="#3BD5FF"/>
<stop offset="1" stop-color="#0FAFFF"/>
</linearGradient>
<linearGradient id="paint2_linear_849_6304" x1="32" y1="64" x2="315.74" y2="531.958" gradientUnits="userSpaceOnUse">
<stop stop-color="#9DEAFF"/>
<stop offset="1" stop-color="#3BD5FF"/>
</linearGradient>
<linearGradient id="paint3_linear_849_6304" x1="32" y1="64" x2="315.74" y2="531.958" gradientUnits="userSpaceOnUse">
<stop stop-color="#3BD5FF"/>
<stop offset="1" stop-color="#0FAFFF"/>
</linearGradient>
<linearGradient id="paint4_linear_849_6304" x1="32" y1="384" x2="315.74" y2="851.958" gradientUnits="userSpaceOnUse">
<stop stop-color="#0078D4"/>
<stop offset="1" stop-color="#004695"/>
</linearGradient>
<linearGradient id="paint5_linear_849_6304" x1="32" y1="384" x2="315.74" y2="851.958" gradientUnits="userSpaceOnUse">
<stop stop-color="#0FAFFF"/>
<stop offset="1" stop-color="#0078D4"/>
</linearGradient>
<linearGradient id="paint6_linear_849_6304" x1="32" y1="384" x2="315.74" y2="851.958" gradientUnits="userSpaceOnUse">
<stop stop-color="#0078D4"/>
<stop offset="1" stop-color="#004695"/>
</linearGradient>
<linearGradient id="paint7_linear_849_6304" x1="384" y1="76.8595" x2="913.974" y2="380.55" gradientUnits="userSpaceOnUse">
<stop stop-color="#0FAFFF"/>
<stop offset="1" stop-color="#0078D4"/>
</linearGradient>
<linearGradient id="paint8_linear_849_6304" x1="384" y1="76.8595" x2="913.974" y2="380.55" gradientUnits="userSpaceOnUse">
<stop stop-color="#3BD5FF"/>
<stop offset="1" stop-color="#0FAFFF"/>
</linearGradient>
<linearGradient id="paint9_linear_849_6304" x1="384" y1="76.8595" x2="913.974" y2="380.55" gradientUnits="userSpaceOnUse">
<stop stop-color="#0FAFFF"/>
<stop offset="1" stop-color="#0078D4"/>
</linearGradient>
<linearGradient id="paint10_linear_849_6304" x1="447.187" y1="272" x2="538.371" y2="449.328" gradientUnits="userSpaceOnUse">
<stop stop-color="#9DEAFF"/>
<stop offset="1" stop-color="#3BD5FF"/>
</linearGradient>
<linearGradient id="paint11_linear_849_6304" x1="511.856" y1="384.227" x2="600.118" y2="559.184" gradientUnits="userSpaceOnUse">
<stop stop-color="#9DEAFF"/>
<stop offset="1" stop-color="#3BD5FF"/>
</linearGradient>
<linearGradient id="paint12_linear_849_6304" x1="511.85" y1="164.289" x2="600.307" y2="339.594" gradientUnits="userSpaceOnUse">
<stop stop-color="#9DEAFF"/>
<stop offset="1" stop-color="#3BD5FF"/>
</linearGradient>
<linearGradient id="paint13_linear_849_6304" x1="414.419" y1="160" x2="433.469" y2="268.66" gradientUnits="userSpaceOnUse">
<stop stop-color="#CEF4FF"/>
<stop offset="1" stop-color="#9DEAFF"/>
</linearGradient>
<linearGradient id="paint14_linear_849_6304" x1="297.132" y1="160" x2="314.349" y2="269.288" gradientUnits="userSpaceOnUse">
<stop stop-color="#CEF4FF"/>
<stop offset="1" stop-color="#9DEAFF"/>
</linearGradient>
<linearGradient id="paint15_linear_849_6304" x1="351.549" y1="272" x2="370.598" y2="381.059" gradientUnits="userSpaceOnUse">
<stop stop-color="#CEF4FF"/>
<stop offset="1" stop-color="#9DEAFF"/>
</linearGradient>
<linearGradient id="paint16_linear_849_6304" x1="319.438" y1="496.218" x2="417.19" y2="662.218" gradientUnits="userSpaceOnUse">
<stop stop-color="#3BD5FF"/>
<stop offset="1" stop-color="#0FAFFF"/>
</linearGradient>
<linearGradient id="paint17_linear_849_6304" x1="256" y1="384" x2="353.971" y2="550.944" gradientUnits="userSpaceOnUse">
<stop stop-color="#3BD5FF"/>
<stop offset="1" stop-color="#0FAFFF"/>
</linearGradient>
<linearGradient id="paint18_linear_849_6304" x1="191.688" y1="496.218" x2="284.167" y2="670.794" gradientUnits="userSpaceOnUse">
<stop stop-color="#3BD5FF"/>
<stop offset="1" stop-color="#0FAFFF"/>
</linearGradient>
<linearGradient id="paint19_linear_849_6304" x1="574.656" y1="272.234" x2="667.229" y2="446.96" gradientUnits="userSpaceOnUse">
<stop stop-color="#9DEAFF"/>
<stop offset="1" stop-color="#3BD5FF"/>
</linearGradient>
<linearGradient id="paint20_linear_849_6304" x1="225.206" y1="272" x2="244.474" y2="380.982" gradientUnits="userSpaceOnUse">
<stop stop-color="#CEF4FF"/>
<stop offset="1" stop-color="#9DEAFF"/>
</linearGradient>
<linearGradient id="paint21_linear_849_6304" x1="130.813" y1="384.032" x2="229.384" y2="549.802" gradientUnits="userSpaceOnUse">
<stop stop-color="#3BD5FF"/>
<stop offset="1" stop-color="#0FAFFF"/>
</linearGradient>
</defs>
</svg>
