<svg width="240" height="240" viewBox="0 0 240 240" fill="none" xmlns="http://www.w3.org/2000/svg">
<path d="M159.926 20H80.0744C69.3564 20 59.4526 25.718 54.0936 35L14.3138 103.901C11.4878 108.796 10 114.348 10 120H120C120 119.366 120.167 118.864 120.484 118.315L174.926 24.0192C170.44 21.4295 165.285 20 159.926 20Z" fill="url(#paint0_linear_849_6280)"/>
<path d="M159.926 20H80.0744C69.3564 20 59.4526 25.718 54.0936 35L14.3138 103.901C11.4878 108.796 10 114.348 10 120H120C120 119.366 120.167 118.864 120.484 118.315L174.926 24.0192C170.44 21.4295 165.285 20 159.926 20Z" fill="url(#paint1_linear_849_6280)"/>
<path d="M159.926 20H80.0744C69.3564 20 59.4526 25.718 54.0936 35L14.3138 103.901C11.4878 108.796 10 114.348 10 120H120C120 119.366 120.167 118.864 120.484 118.315L174.926 24.0192C170.44 21.4295 165.285 20 159.926 20Z" fill="url(#paint2_linear_849_6280)"/>
<path d="M159.926 20H80.0744C69.3564 20 59.4526 25.718 54.0936 35L14.3138 103.901C11.4878 108.796 10 114.348 10 120H120C120 119.366 120.167 118.864 120.484 118.315L174.926 24.0192C170.44 21.4295 165.285 20 159.926 20Z" fill="url(#paint3_linear_849_6280)"/>
<path d="M159.926 220H80.0744C69.3564 220 59.4526 214.282 54.0937 205L14.3138 136.099C11.508 131.239 10.0211 125.61 10 120H120C120 120.476 120.125 121.064 120.363 121.476L174.925 215.981C170.44 218.571 165.285 220 159.926 220Z" fill="url(#paint4_linear_849_6280)"/>
<path d="M159.926 220H80.0744C69.3564 220 59.4526 214.282 54.0937 205L14.3138 136.099C11.508 131.239 10.0211 125.61 10 120H120C120 120.476 120.125 121.064 120.363 121.476L174.925 215.981C170.44 218.571 165.285 220 159.926 220Z" fill="url(#paint5_linear_849_6280)"/>
<path d="M159.926 220H80.0744C69.3564 220 59.4526 214.282 54.0937 205L14.3138 136.099C11.508 131.239 10.0211 125.61 10 120H120C120 120.476 120.125 121.064 120.363 121.476L174.925 215.981C170.44 218.571 165.285 220 159.926 220Z" fill="url(#paint6_linear_849_6280)"/>
<path d="M225.686 136.098L185.906 204.999C183.227 209.64 179.411 213.39 174.925 215.98L120.363 121.475C120.125 121.063 120 120.596 120 120.12C120 119.486 120.167 118.863 120.484 118.314L174.926 24.0186C179.411 26.6083 183.227 30.3583 185.906 34.9993L225.686 103.9C228.512 108.795 230 114.347 230 119.999C230 125.651 228.512 131.204 225.686 136.098Z" fill="url(#paint7_linear_849_6280)"/>
<path d="M225.686 136.098L185.906 204.999C183.227 209.64 179.411 213.39 174.925 215.98L120.363 121.475C120.125 121.063 120 120.596 120 120.12C120 119.486 120.167 118.863 120.484 118.314L174.926 24.0186C179.411 26.6083 183.227 30.3583 185.906 34.9993L225.686 103.9C228.512 108.795 230 114.347 230 119.999C230 125.651 228.512 131.204 225.686 136.098Z" fill="url(#paint8_linear_849_6280)"/>
<path d="M225.686 136.098L185.906 204.999C183.227 209.64 179.411 213.39 174.925 215.98L120.363 121.475C120.125 121.063 120 120.596 120 120.12C120 119.486 120.167 118.863 120.484 118.314L174.926 24.0186C179.411 26.6083 183.227 30.3583 185.906 34.9993L225.686 103.9C228.512 108.795 230 114.347 230 119.999C230 125.651 228.512 131.204 225.686 136.098Z" fill="url(#paint9_linear_849_6280)"/>
<path d="M139.766 155.068L120.371 121.475L119.512 119.999L139.735 85L159.98 120.071L139.766 155.068Z" fill="url(#paint10_linear_849_6280)"/>
<path d="M180.144 155L162.816 185C161.923 186.547 160.651 187.797 159.156 188.66L140.848 156.95L139.766 155.068L159.98 120.071L180.144 155Z" fill="url(#paint11_linear_849_6280)"/>
<path d="M162.821 55.0006C161.927 53.4536 160.656 52.2036 159.16 51.3403L139.727 85.0006L159.972 120.071L180.18 85.0721L162.821 55.0006Z" fill="url(#paint12_linear_849_6280)"/>
<path d="M159.148 51.3397C157.653 50.4765 155.935 50 154.148 50H125.844C122.271 50 118.97 51.906 117.184 55L99.8633 85H129.996H139.714L159.148 51.3397Z" fill="url(#paint13_linear_849_6280)"/>
<path d="M85.844 50C82.2714 50 78.9701 51.906 77.1838 55L59.8633 85H99.8633L117.184 55C118.97 51.906 122.271 50 125.844 50H85.844Z" fill="url(#paint14_linear_849_6280)"/>
<path d="M120 120.121C120 119.487 120.167 118.864 120.484 118.315L139.718 85H130H99.8671L80.2945 118.901C80.1016 119.235 80 119.622 80 120.008L80.0033 120.121H120Z" fill="url(#paint15_linear_849_6280)"/>
<path d="M154.144 190C155.931 190 157.649 189.524 159.144 188.661L140.837 156.951L139.75 155.068H99.8242L117.18 185C118.966 188.094 122.267 190 125.84 190H154.144Z" fill="url(#paint16_linear_849_6280)"/>
<path d="M120 120C120 120.476 120.125 121.064 120.363 121.476L139.757 155.068H99.832L80.2945 121.099C80.1218 120.8 80.0223 120.465 80.0033 120.121L80 120.009L120 120Z" fill="url(#paint17_linear_849_6280)"/>
<path d="M77.1835 185C78.9698 188.094 82.2711 190 85.8438 190H125.844C122.271 190 118.97 188.094 117.184 185L99.8279 155.068H59.9023L77.1835 185Z" fill="url(#paint18_linear_849_6280)"/>
<path d="M196.599 113.501L180.189 85.0732L159.98 120.072L180.145 155.002L196.614 126.475C197.204 125.444 197.735 124.515 198.196 123.705C198.852 122.555 199.18 121.278 199.18 120.001C199.18 118.724 198.852 117.448 198.196 116.297C197.731 115.48 197.195 114.543 196.599 113.501Z" fill="url(#paint19_linear_849_6280)"/>
<path d="M40.8799 120.121H80.011L80.0076 120.008C80.0076 119.622 80.1092 119.235 80.3021 118.901L99.8748 85H59.8873C52.4865 97.8186 45.2987 110.284 41.8673 116.287C41.2084 117.44 40.8789 118.72 40.8789 120C40.8789 120.04 40.8792 120.081 40.8799 120.121Z" fill="url(#paint20_linear_849_6280)"/>
<path d="M59.9268 155.07H99.8396L80.3021 121.101C80.1294 120.801 80.0299 120.466 80.011 120.123L80.0076 120.01H40.8789C40.8804 121.287 41.2098 122.564 41.8673 123.714C45.3049 129.728 52.5123 142.227 59.9268 155.07Z" fill="url(#paint21_linear_849_6280)"/>
<defs>
<linearGradient id="paint0_linear_849_6280" x1="10" y1="20" x2="98.6686" y2="166.237" gradientUnits="userSpaceOnUse">
<stop stop-color="#9DEAFF"/>
<stop offset="1" stop-color="#3BD5FF"/>
</linearGradient>
<linearGradient id="paint1_linear_849_6280" x1="10" y1="20" x2="98.6686" y2="166.237" gradientUnits="userSpaceOnUse">
<stop stop-color="#3BD5FF"/>
<stop offset="1" stop-color="#0FAFFF"/>
</linearGradient>
<linearGradient id="paint2_linear_849_6280" x1="10" y1="20" x2="98.6686" y2="166.237" gradientUnits="userSpaceOnUse">
<stop stop-color="#9DEAFF"/>
<stop offset="1" stop-color="#3BD5FF"/>
</linearGradient>
<linearGradient id="paint3_linear_849_6280" x1="10" y1="20" x2="98.6686" y2="166.237" gradientUnits="userSpaceOnUse">
<stop stop-color="#3BD5FF"/>
<stop offset="1" stop-color="#0FAFFF"/>
</linearGradient>
<linearGradient id="paint4_linear_849_6280" x1="10" y1="120" x2="98.6687" y2="266.237" gradientUnits="userSpaceOnUse">
<stop stop-color="#0078D4"/>
<stop offset="1" stop-color="#004695"/>
</linearGradient>
<linearGradient id="paint5_linear_849_6280" x1="10" y1="120" x2="98.6687" y2="266.237" gradientUnits="userSpaceOnUse">
<stop stop-color="#0FAFFF"/>
<stop offset="1" stop-color="#0078D4"/>
</linearGradient>
<linearGradient id="paint6_linear_849_6280" x1="10" y1="120" x2="98.6687" y2="266.237" gradientUnits="userSpaceOnUse">
<stop stop-color="#0078D4"/>
<stop offset="1" stop-color="#004695"/>
</linearGradient>
<linearGradient id="paint7_linear_849_6280" x1="120" y1="24.0186" x2="285.617" y2="118.922" gradientUnits="userSpaceOnUse">
<stop stop-color="#0FAFFF"/>
<stop offset="1" stop-color="#0078D4"/>
</linearGradient>
<linearGradient id="paint8_linear_849_6280" x1="120" y1="24.0186" x2="285.617" y2="118.922" gradientUnits="userSpaceOnUse">
<stop stop-color="#3BD5FF"/>
<stop offset="1" stop-color="#0FAFFF"/>
</linearGradient>
<linearGradient id="paint9_linear_849_6280" x1="120" y1="24.0186" x2="285.617" y2="118.922" gradientUnits="userSpaceOnUse">
<stop stop-color="#0FAFFF"/>
<stop offset="1" stop-color="#0078D4"/>
</linearGradient>
<linearGradient id="paint10_linear_849_6280" x1="139.746" y1="85" x2="168.241" y2="140.415" gradientUnits="userSpaceOnUse">
<stop stop-color="#9DEAFF"/>
<stop offset="1" stop-color="#3BD5FF"/>
</linearGradient>
<linearGradient id="paint11_linear_849_6280" x1="159.955" y1="120.071" x2="187.537" y2="174.745" gradientUnits="userSpaceOnUse">
<stop stop-color="#9DEAFF"/>
<stop offset="1" stop-color="#3BD5FF"/>
</linearGradient>
<linearGradient id="paint12_linear_849_6280" x1="159.953" y1="51.3403" x2="187.596" y2="106.123" gradientUnits="userSpaceOnUse">
<stop stop-color="#9DEAFF"/>
<stop offset="1" stop-color="#3BD5FF"/>
</linearGradient>
<linearGradient id="paint13_linear_849_6280" x1="129.506" y1="50" x2="135.459" y2="83.9561" gradientUnits="userSpaceOnUse">
<stop stop-color="#CEF4FF"/>
<stop offset="1" stop-color="#9DEAFF"/>
</linearGradient>
<linearGradient id="paint14_linear_849_6280" x1="92.8537" y1="50" x2="98.2341" y2="84.1524" gradientUnits="userSpaceOnUse">
<stop stop-color="#CEF4FF"/>
<stop offset="1" stop-color="#9DEAFF"/>
</linearGradient>
<linearGradient id="paint15_linear_849_6280" x1="109.859" y1="85" x2="115.812" y2="119.081" gradientUnits="userSpaceOnUse">
<stop stop-color="#CEF4FF"/>
<stop offset="1" stop-color="#9DEAFF"/>
</linearGradient>
<linearGradient id="paint16_linear_849_6280" x1="99.8242" y1="155.068" x2="130.372" y2="206.943" gradientUnits="userSpaceOnUse">
<stop stop-color="#3BD5FF"/>
<stop offset="1" stop-color="#0FAFFF"/>
</linearGradient>
<linearGradient id="paint17_linear_849_6280" x1="80" y1="120" x2="110.616" y2="172.17" gradientUnits="userSpaceOnUse">
<stop stop-color="#3BD5FF"/>
<stop offset="1" stop-color="#0FAFFF"/>
</linearGradient>
<linearGradient id="paint18_linear_849_6280" x1="59.9023" y1="155.068" x2="88.8021" y2="209.623" gradientUnits="userSpaceOnUse">
<stop stop-color="#3BD5FF"/>
<stop offset="1" stop-color="#0FAFFF"/>
</linearGradient>
<linearGradient id="paint19_linear_849_6280" x1="179.58" y1="85.0732" x2="208.509" y2="139.675" gradientUnits="userSpaceOnUse">
<stop stop-color="#9DEAFF"/>
<stop offset="1" stop-color="#3BD5FF"/>
</linearGradient>
<linearGradient id="paint20_linear_849_6280" x1="70.3768" y1="85" x2="76.3982" y2="119.057" gradientUnits="userSpaceOnUse">
<stop stop-color="#CEF4FF"/>
<stop offset="1" stop-color="#9DEAFF"/>
</linearGradient>
<linearGradient id="paint21_linear_849_6280" x1="40.8789" y1="120.01" x2="71.6825" y2="171.813" gradientUnits="userSpaceOnUse">
<stop stop-color="#3BD5FF"/>
<stop offset="1" stop-color="#0FAFFF"/>
</linearGradient>
</defs>
</svg>
