<svg width="1280" height="720" xmlns="http://www.w3.org/2000/svg" xmlns:xlink="http://www.w3.org/1999/xlink" overflow="hidden"><defs><clipPath id="clip0"><rect x="0" y="0" width="1280" height="720"/></clipPath></defs><g clip-path="url(#clip0)"><rect x="0" y="0" width="1280" height="720" fill="#FFFFFF"/><path d="M609 99.0009C609 64.7588 636.759 37 671.001 37L1181 37C1215.24 37 1243 64.7588 1243 99.0009L1243 346.999C1243 381.241 1215.24 409 1181 409L671.001 409C636.759 409 609 381.241 609 346.999Z" fill="#FFE699" fill-rule="evenodd" fill-opacity="0.498039"/><text font-family="Calibri,Calibri_MSFontService,sans-serif" font-weight="400" font-size="24" transform="translate(637.08 79)">C:<tspan font-size="24" x="19.3333" y="0">\</tspan><tspan font-size="24" x="28.6667" y="0">Program Files</tspan>\<tspan font-size="24" x="169.62" y="0">WindowsApps</tspan>\<tspan font-size="24" x="318.36" y="0">ProjectReunionFramework</tspan></text><path d="M37 80.5009C37 56.476 56.476 37 80.5009 37L331.499 37C355.524 37 375 56.476 375 80.5009L375 254.499C375 278.524 355.524 298 331.499 298L80.5009 298C56.476 298 37 278.524 37 254.499Z" fill="#FFE699" fill-rule="evenodd" fill-opacity="0.498039"/><text font-family="Calibri,Calibri_MSFontService,sans-serif" font-weight="400" font-size="24" transform="translate(126.653 73)">C:<tspan font-size="24" x="19.3333" y="0">\</tspan><tspan font-size="24" x="28.6667" y="0">Your</tspan><tspan font-size="24" x="72.2067" y="0">\</tspan><tspan font-size="24" x="81.54" y="0">App</tspan><tspan font-size="24" x="120.707" y="0">\</tspan>Dir</text><path d="M50 202C50 193.164 57.1635 186 66.0002 186L347 186C355.836 186 363 193.164 363 202L363 266C363 274.836 355.836 282 347 282L66.0002 282C57.1635 282 50 274.836 50 266Z" fill="#CCCCFF" fill-rule="evenodd" fill-opacity="0.498039"/><text font-family="Calibri,Calibri_MSFontService,sans-serif" font-weight="400" font-size="24" transform="translate(66.3087 213)">ProjectReunion.Bootstrap.dll</text><path d="M66 232.834C66 228.507 69.5072 225 73.8335 225L339.166 225C343.493 225 347 228.507 347 232.834L347 264.166C347 268.493 343.493 272 339.166 272L73.8335 272C69.5072 272 66 268.493 66 264.166Z" fill="#BDD7EE" fill-rule="evenodd"/><text font-family="Calibri,Calibri_MSFontService,sans-serif" font-weight="400" font-size="24" transform="translate(88.092 256)">MddBootstrapInitialize<tspan font-size="24" x="222.367" y="0">()</tspan></text><path d="M666 134.168C666 110.879 684.879 92 708.168 92L1143.83 92C1167.12 92 1186 110.879 1186 134.168L1186 302.832C1186 326.121 1167.12 345 1143.83 345L708.168 345C684.879 345 666 326.121 666 302.832Z" fill="#CCCCFF" fill-rule="evenodd" fill-opacity="0.498039"/><text font-family="Calibri,Calibri_MSFontService,sans-serif" font-weight="400" font-size="24" transform="translate(836.51 127)">ProjectReunion.dll</text><path d="M707 149C707 144.582 710.582 141 715 141L1146 141C1150.42 141 1154 144.582 1154 149L1154 181C1154 185.418 1150.42 189 1146 189L715 189C710.582 189 707 185.418 707 181Z" fill="#BDD7EE" fill-rule="evenodd"/><text font-family="Calibri,Calibri_MSFontService,sans-serif" font-weight="400" font-size="24" transform="translate(808.242 172)">DynamicDependency<tspan font-size="24" x="212.667" y="0">API</tspan></text><path d="M707 197.833C707 193.507 710.507 190 714.833 190L1146.17 190C1150.49 190 1154 193.507 1154 197.833L1154 229.167C1154 233.493 1150.49 237 1146.17 237L714.833 237C710.507 237 707 233.493 707 229.167Z" fill="#BDD7EE" fill-rule="evenodd"/><text font-family="Calibri,Calibri_MSFontService,sans-serif" font-weight="400" font-size="24" transform="translate(834.412 221)">Install/Servicing API</text><path d="M707 246C707 241.582 710.582 238 715 238L1146 238C1150.42 238 1154 241.582 1154 246L1154 278C1154 282.418 1150.42 286 1146 286L715 286C710.582 286 707 282.418 707 278Z" fill="#BDD7EE" fill-rule="evenodd"/><text font-family="Calibri,Calibri_MSFontService,sans-serif" font-weight="400" font-size="24" transform="translate(863.826 270)">…other APIs…</text><path d="M50 92.6667C50 88.9848 52.9848 86 56.6667 86L356.333 86C360.015 86 363 88.9848 363 92.6667L363 119.333C363 123.015 360.015 126 356.333 126L56.6667 126C52.9848 126 50 123.015 50 119.333Z" fill="#CCCCFF" fill-rule="evenodd" fill-opacity="0.498039"/><text font-family="Calibri,Calibri_MSFontService,sans-serif" font-weight="400" font-size="24" transform="translate(145.585 111)">YourApp.exe</text><path d="M50 142.667C50 138.985 52.9848 136 56.6667 136L356.333 136C360.015 136 363 138.985 363 142.667L363 169.333C363 173.015 360.015 176 356.333 176L56.6667 176C52.9848 176 50 173.015 50 169.333Z" fill="#CCCCFF" fill-rule="evenodd" fill-opacity="0.498039"/><text font-family="Calibri,Calibri_MSFontService,sans-serif" font-weight="400" font-size="24" transform="translate(87.7321 161)">…your app’s other files…</text><path d="M609 485.501C609 463.685 626.685 446 648.501 446L1203.5 446C1225.31 446 1243 463.685 1243 485.501L1243 643.499C1243 665.315 1225.31 683 1203.5 683L648.501 683C626.685 683 609 665.315 609 643.499Z" fill="#FFE699" fill-rule="evenodd" fill-opacity="0.498039"/><text font-family="Calibri,Calibri_MSFontService,sans-serif" font-weight="400" font-size="24" transform="translate(667.08 481)">C:<tspan font-size="24" x="19.3333" y="0">\</tspan><tspan font-size="24" x="28.6667" y="0">Program Files</tspan>\<tspan font-size="24" x="169.62" y="0">WindowsApps</tspan>\<tspan font-size="24" x="318.36" y="0">ProjectReunionMain</tspan></text><path d="M661 515.667C661 504.805 669.805 496 680.667 496L1187.33 496C1198.19 496 1207 504.805 1207 515.667L1207 594.333C1207 605.195 1198.19 614 1187.33 614L680.667 614C669.805 614 661 605.195 661 594.333Z" fill="#CCCCFF" fill-rule="evenodd" fill-opacity="0.498039"/><text font-family="Calibri,Calibri_MSFontService,sans-serif" font-weight="400" font-size="24" transform="translate(762.086 525)">DynamicDependencyDataStore.exe</text><path d="M699 543.333C699 538.179 703.179 534 708.333 534L1158.67 534C1163.82 534 1168 538.179 1168 543.333L1168 580.667C1168 585.821 1163.82 590 1158.67 590L708.333 590C703.179 590 699 585.821 699 580.667Z" fill="#BDD7EE" fill-rule="evenodd"/><text font-family="Calibri,Calibri_MSFontService,sans-serif" font-weight="400" font-size="24" transform="translate(760.172 560)">DynamicDependency<tspan font-size="24" x="212.667" y="0">DataStore</tspan><tspan font-size="24" x="314.94" y="0">API</tspan><tspan font-size="16" x="14.3666" y="22">(</tspan><tspan font-size="16" x="19.2" y="22">DynamicDependency</tspan><tspan font-size="16" x="160.367" y="22">Create/Delete </tspan><tspan font-size="16" x="255.24" y="22">-</tspan><tspan font-size="16" x="260.073" y="22">&gt; </tspan><tspan font-size="16" x="271.74" y="22">AppData</tspan><tspan font-size="16" x="327.9" y="22">)</tspan></text><path d="M666 360.667C666 356.985 668.985 354 672.667 354L1179.33 354C1183.02 354 1186 356.985 1186 360.667L1186 387.333C1186 391.015 1183.02 394 1179.33 394L672.667 394C668.985 394 666 391.015 666 387.333Z" fill="#CCCCFF" fill-rule="evenodd" fill-opacity="0.498039"/><text font-family="Calibri,Calibri_MSFontService,sans-serif" font-weight="400" font-size="24" transform="translate(733.094 379)">…other <tspan font-size="24" x="75.6667" y="0">ProjectReunion</tspan><tspan font-size="24" x="230.693" y="0">Framework files</tspan></text><path d="M661 630.667C661 626.985 663.985 624 667.667 624L1200.33 624C1204.02 624 1207 626.985 1207 630.667L1207 657.333C1207 661.015 1204.02 664 1200.33 664L667.667 664C663.985 664 661 661.015 661 657.333Z" fill="#CCCCFF" fill-rule="evenodd" fill-opacity="0.498039"/><text font-family="Calibri,Calibri_MSFontService,sans-serif" font-weight="400" font-size="24" transform="translate(770.712 649)">…other <tspan font-size="24" x="75.6667" y="0">ProjectReunion</tspan><tspan font-size="24" x="230.693" y="0">Main files</tspan></text><path d="M707 296C707 291.582 710.582 288 715 288L1146 288C1150.42 288 1154 291.582 1154 296L1154 328C1154 332.418 1150.42 336 1146 336L715 336C710.582 336 707 332.418 707 328Z" fill="#BDD7EE" fill-rule="evenodd"/><text font-family="Calibri,Calibri_MSFontService,sans-serif" font-weight="400" font-size="24" transform="translate(892.129 320)">Detours</text><path d="M326.5 235C326.5 230.306 331.201 226.5 337 226.5 342.799 226.5 347.5 230.306 347.5 235 347.5 239.694 342.799 243.5 337 243.5 331.201 243.5 326.5 239.694 326.5 235Z" stroke="#2F528F" stroke-width="1.33333" stroke-miterlimit="8" fill="#FFCCCC" fill-rule="evenodd"/><text font-family="Calibri,Calibri_MSFontService,sans-serif" font-weight="400" font-size="16" transform="translate(332.231 240)">1</text><path d="M666.5 101C666.5 96.3056 671.425 92.5001 677.5 92.5001 683.575 92.5001 688.5 96.3056 688.5 101 688.5 105.694 683.575 109.5 677.5 109.5 671.425 109.5 666.5 105.694 666.5 101Z" stroke="#2F528F" stroke-width="1.33333" stroke-miterlimit="8" fill="#FFCCCC" fill-rule="evenodd"/><text font-family="Calibri,Calibri_MSFontService,sans-serif" font-weight="400" font-size="16" transform="translate(672.799 106)">3</text><path d="M707.5 299.5C707.5 294.53 712.425 290.5 718.5 290.5 724.575 290.5 729.5 294.53 729.5 299.5 729.5 304.471 724.575 308.5 718.5 308.5 712.425 308.5 707.5 304.471 707.5 299.5Z" stroke="#2F528F" stroke-width="1.33333" stroke-miterlimit="8" fill="#FFCCCC" fill-rule="evenodd"/><text font-family="Calibri,Calibri_MSFontService,sans-serif" font-weight="400" font-size="16" transform="translate(713.981 304)">4</text><path d="M708.5 151C708.5 146.306 713.201 142.5 719 142.5 724.799 142.5 729.5 146.306 729.5 151 729.5 155.694 724.799 159.5 719 159.5 713.201 159.5 708.5 155.694 708.5 151Z" stroke="#2F528F" stroke-width="1.33333" stroke-miterlimit="8" fill="#FFCCCC" fill-rule="evenodd"/><text font-family="Calibri,Calibri_MSFontService,sans-serif" font-weight="400" font-size="16" transform="translate(714.372 156)">5</text><path d="M699.5 543.5C699.5 538.529 704.425 534.5 710.5 534.5 716.575 534.5 721.5 538.529 721.5 543.5 721.5 548.471 716.575 552.5 710.5 552.5 704.425 552.5 699.5 548.471 699.5 543.5Z" stroke="#2F528F" stroke-width="1.33333" stroke-miterlimit="8" fill="#FFCCCC" fill-rule="evenodd"/><text font-family="Calibri,Calibri_MSFontService,sans-serif" font-weight="400" font-size="16" transform="translate(705.841 548)">6</text><path d="M36 385.001C36 349.654 64.6543 321 100.001 321L516.999 321C552.346 321 581 349.654 581 385.001L581 640.999C581 676.346 552.346 705 516.999 705L100.001 705C64.6543 705 36 676.346 36 640.999Z" fill="#FFE699" fill-rule="evenodd" fill-opacity="0.498039"/><text font-family="Calibri,Calibri_MSFontService,sans-serif" font-weight="400" font-size="21" transform="translate(66.4439 361)">C:\<tspan font-size="21" x="25.1667" y="0">Program Files</tspan><tspan font-size="21" x="142.213" y="0">\</tspan>WindowsApps<tspan font-size="21" x="274.167" y="0">\</tspan><tspan font-size="21" x="282.333" y="0">ProjectReunionDDLM</tspan><tspan font-size="21" x="468.947" y="0">…</tspan></text><path d="M48 396.833C48 387.537 55.5366 380 64.8334 380L552.167 380C561.463 380 569 387.537 569 396.833L569 464.167C569 473.463 561.463 481 552.167 481L64.8334 481C55.5366 481 48 473.463 48 464.167Z" fill="#CCCCFF" fill-rule="evenodd" fill-opacity="0.498039"/><text font-family="Calibri,Calibri_MSFontService,sans-serif" font-weight="400" font-size="24" transform="translate(102.917 408)">DynamicDependencyLifetimeManager.exe</text><path d="M59 430C59 425.582 62.5818 422 67.0002 422L550 422C554.418 422 558 425.582 558 430L558 462C558 466.418 554.418 470 550 470L67.0002 470C62.5818 470 59 466.418 59 462Z" fill="#BDD7EE" fill-rule="evenodd"/><text font-family="Calibri,Calibri_MSFontService,sans-serif" font-weight="400" font-size="24" transform="translate(118.63 444)">DynamicDependency<tspan font-size="24" x="212.667" y="0">LifetimeManager</tspan><tspan font-size="16" x="67.7733" y="22">(Running process w/package identity)</tspan></text><path d="M48 508.667C48 496.148 58.1483 486 70.667 486L545.333 486C557.852 486 568 496.148 568 508.667L568 599.333C568 611.852 557.852 622 545.333 622L70.667 622C58.1483 622 48 611.852 48 599.333Z" fill="#CCCCFF" fill-rule="evenodd" fill-opacity="0.498039"/><text font-family="Calibri,Calibri_MSFontService,sans-serif" font-weight="400" font-size="24" transform="translate(219.829 516)">AppxManifest.xml</text><path d="M534.5 433.5C534.5 428.53 539.201 424.5 545 424.5 550.799 424.5 555.5 428.53 555.5 433.5 555.5 438.471 550.799 442.5 545 442.5 539.201 442.5 534.5 438.471 534.5 433.5Z" stroke="#2F528F" stroke-width="1.33333" stroke-miterlimit="8" fill="#FFCCCC" fill-rule="evenodd"/><text font-family="Calibri,Calibri_MSFontService,sans-serif" font-weight="400" font-size="16" transform="translate(540.468 438)">2</text><path d="M48 634.667C48 630.985 50.9847 628 54.6666 628L561.333 628C565.015 628 568 630.985 568 634.667L568 661.333C568 665.015 565.015 668 561.333 668L54.6666 668C50.9847 668 48 665.015 48 661.333Z" fill="#CCCCFF" fill-rule="evenodd" fill-opacity="0.498039"/><text font-family="Calibri,Calibri_MSFontService,sans-serif" font-weight="400" font-size="24" transform="translate(241.906 653)">…other files…</text><path d="M59 537.834C59 529.641 65.6412 523 73.8336 523L543.166 523C551.359 523 558 529.641 558 537.834L558 597.166C558 605.359 551.359 612 543.166 612L73.8336 612C65.6412 612 59 605.359 59 597.166Z" fill="#BDD7EE" fill-rule="evenodd"/><text font-family="Calibri,Calibri_MSFontService,sans-serif" font-weight="400" font-size="15" transform="translate(303.164 537)">…<tspan font-size="15" x="-217.413" y="17">&lt;</tspan><tspan font-size="15" x="-210.08" y="17">com:ExeServer</tspan><tspan font-size="15" x="-118.08" y="17">Executable=DynamicDependencyLifetimeManager.exe …&gt;</tspan><tspan font-size="15" x="0" y="35">…</tspan><tspan font-size="15" x="-180.58" y="53">&lt;</tspan><tspan font-size="15" x="-173.247" y="53">PackageDependency</tspan><tspan font-size="15" x="-46.9133" y="53">Name=“</tspan>ProjectReunionFramework<tspan font-size="15" x="161.42" y="53">”…/&gt;</tspan><tspan font-size="15" x="0" y="70">…</tspan></text></g></svg>